{"title":"The.Bridge.To.Nowhere.2009.DVDRiP.XviD.NORDIC-Zen_Bud","uid":5993277,"size":962626557,"categoryP":"video","categoryS":"movies","magnet":"?xt=urn:btih:d207b5cceb27c9eb8345fe39b958e86f7d2e7bea&amp;dn=The.Bridge.To.Nowhere.2009.DVDRiP.XviD.NORDIC-Zen_Bud&amp;tr=udp%3A%2F%2Ftracker.openbittorrent.com%3A80&amp;tr=udp%3A%2F%2Fopen.demonii.com%3A1337&amp;tr=udp%3A%2F%2Ftracker.coppersurfer.tk%3A6969&amp;tr=udp%3A%2F%2Fexodus.desync.com%3A6969","seeders":0,"leechers":1,"uploader":"Zen_Bud","files":-1,"time":1290963720,"description":"**** The.Bridge.To.Nowhere.2009.DVDRiP.XviD.NORDIC-Zen_Bud ****\n\nFormat                           : AVI\nFile size                        : 905 MiB\nDuration                         : 1h 40mn\nOverall bit rate                 : 1 253 Kbps\n\nVideo\n\nFormat                           : MPEG-4 Visual\nBit rate                         : 1 112 Kbps\nWidth                            : 720 pixels\nHeight                           : 576 pixels\nDisplay aspect ratio             : 16:9\nStream size                      : 803 MiB (89%)\nWriting library                  : XviD 1.1.2 (UTC 2006-11-01)\n\nAudio\n\nFormat                           : MPEG Audio\nCodec ID/Hint                    : MP3\nDuration                         : 1h 40mn\nBit rate                         : 128 Kbps\nChannel(s)                       : 2 channels\nSampling rate                    : 48.0 KHz\nStream size                      : 92.4 MiB (10%)\nLanguage                         : English\n\nText #1\nLanguage                         : Finnish\n\nText #2\nLanguage                         : Norwegian\n\nText #3\nLanguage                         : Swedish\n\nText #4\nLanguage                         : Danish\n\n**********************************************************************\n\nCenters on the rise and fall of four blue-collar men who team with a destitute prostitute to create a high-priced escort service. \n\n**********************************************************************","torrent":{"xt":"urn:btih:d207b5cceb27c9eb8345fe39b958e86f7d2e7bea","amp;dn":"The.Bridge.To.Nowhere.2009.DVDRiP.XviD.NORDIC-Zen_Bud","amp;tr":["udp%3A%2F%2Ftracker.openbittorrent.com%3A80","udp%3A%2F%2Fopen.demonii.com%3A1337","udp%3A%2F%2Ftracker.coppersurfer.tk%3A6969","udp%3A%2F%2Fexodus.desync.com%3A6969"],"infoHash":"d207b5cceb27c9eb8345fe39b958e86f7d2e7bea","infoHashBuffer":{"type":"Buffer","data":[210,7,181,204,235,39,201,235,131,69,254,57,185,88,232,111,125,46,123,234]},"announce":[],"urlList":[]}}